

Release info:

General
Format : Matroska
Format version : Version 2
Duration : 1h 57mn
Overall bit rate mode : Variable
Overall bit rate : 2 163 Kbps
Movie name : Dutta Vs Dutta 2012

Video
ID : 1
Format : AVC
Format/Info : Advanced Video Codec
Format profile : High@L4.1
Format settings, CABAC : Yes
Format settings, ReFrames : 3 frames
Muxing mode : Header stripping
Codec ID : V_MPEG4/ISO/AVC
Duration : 1h 57mn
Bit rate mode : Variable
Bit rate : 2 000 Kbps
Maximum bit rate : 40.0 Mbps
Width : 868 pixels
Height : 368 pixels
Display aspect ratio : 2.35:1
Frame rate mode : Constant
Frame rate : 25.000 fps
Color space : YUV
Chroma subsampling : 4:2:0
Bit depth : 8 bits
Scan type : Progressive
Bits/(Pixel*Frame) : 0.250
Stream size : 1.61 GiB (91%)
Title : Dutta Vs Dutta 2012
Language : Bengali
Default : Yes
Forced : No

Audio
ID : 3
Format : AC-3
Format/Info : Audio Coding 3
Mode extension : CM (complete main)
Format settings, Endianness : Big
Muxing mode : Header stripping
Codec ID : A_AC3
Duration : 1h 57mn
Bit rate mode : Constant
Bit rate : 160 Kbps
Channel(s) : 6 channels
Channel positions : Front: L C R, Side: L R, LFE
Sampling rate : 48.0 KHz
Bit depth : 16 bits
Compression mode : Lossy
Stream size : 135 MiB (7%)
Title : Dutta Vs Dutta 2012
Language : Bengali
Default : Yes
Forced : No

Text
ID : 2
Format : VobSub
Muxing mode : zlib
Codec ID : S_VOBSUB
Codec ID/Info : The same subtitle format used on DVDs
Title : Dutta Vs Dutta 2012
Language : English
Default : Yes
Forced : No

Source:
credit to original movie ripper DDR (Thanks)

Movie Info:

Anja Dutta's latest directional Bengali movie Dutta vs Dutta set on a plot of his own life again. Before that he has done a fabulous job in the movie Ranjana Ami Aar Ashbona. This film is based on Anjan Dutta's childhood life. The film is set up on a story of 1970s when Kolkata started seeing the rise of rock music bands, Hippie culture and Naxalite movements.

Director Anjan Dutt
Starring Anjan Dutt, Ronodeep Bose, Arpita Chatterjee, Roopa Ganguly
Release date November 23, 2012 (Kolkata)



Screen Shot:
 
http://www.shotpix.com/images/42811281283094489724.png 
http://www.shotpix.com/images/91803442858275929956.png 
http://www.shotpix.com/images/97189811612038912926.png 
http://www.shotpix.com/images/15685889105154823338.png 
http://www.shotpix.com/images/85478129680005502472.png 
http://www.shotpix.com/images/11295920053337076758.png